<svg xmlns="http://www.w3.org/2000/svg" viewBox="0 0 472.07 638.16"><defs><style>.cls-1{fill:#ed1c24;}.cls-1,.cls-2{stroke:#fff;stroke-miterlimit:10;stroke-width:5px;}.cls-2{fill:#fff200;}</style></defs><title>Asset 6</title><g id="Layer_2" data-name="Layer 2"><g id="Layer_1-2" data-name="Layer 1"><path class="cls-1" d="M6.4,202.53l53.12,432s197.73-64.1,347.18,0l62.48-432H380.75s-129.33,233.74-288.64,0Z"/><polygon class="cls-2" points="154.01 93.92 206.92 104.91 194.44 297.49 137.46 257.9 154.01 93.92"/><path class="cls-2" d="M242,306.33V55L227.6,57.67,193.34,64v38.12l13.58,2.82L194.44,297.49S226.13,308.17,242,306.33Z"/><path class="cls-2" d="M333.17,262.52V2.73L273.42,8l7.67,287.89S309,288.69,333.17,262.52Z"/><path class="cls-2" d="M242,306.33v-217l31.37,4.55,7.67,201.92A100.16,100.16,0,0,1,242,306.33Z"/><path class="cls-2" d="M363.79,228l9.44-173-40.05-8.76V262.52S360.1,233,363.79,228Z"/><polygon class="cls-2" points="400.42 202.53 416.19 82.98 371.7 82.98 363.24 227.75 380.75 202.53 400.42 202.53 418.2 67.69 469.18 60.8 453.92 202.53 400.42 202.53"/><polyline class="cls-2" points="6.41 202.53 92.11 202.53 101.36 215.62 92.11 14.58 38.11 22.29 43.51 96.83 53.07 93.92 79.84 202.53 53.07 93.92 2.95 111.31 24.47 202.53"/><polyline class="cls-2" points="93.25 39.38 164.01 39.38 93.25 39.38 101.36 215.62 137.46 257.9 154.01 93.92 164.01 96 164.01 36.91"/></g></g></svg>