<svg xmlns="http://www.w3.org/2000/svg" viewBox="0 0 545.43 492.37"><defs><style>.cls-1{fill:#c49a6c;}.cls-1,.cls-2,.cls-3,.cls-4,.cls-5{stroke:#fff;stroke-miterlimit:10;stroke-width:5px;}.cls-2{fill:#603913;}.cls-3{fill:none;}.cls-4{fill:#39b54a;}.cls-5{fill:#fbb040;}</style></defs><title>Asset 8</title><g id="Layer_2" data-name="Layer 2"><g id="Layer_1-2" data-name="Layer 1"><path class="cls-1" d="M291,2.5c3.61,1,7.35.65,11,.92a325,325,0,0,1,95.79,21.3A264.1,264.1,0,0,1,449.25,51.8,233.69,233.69,0,0,1,482.9,79.36a229.48,229.48,0,0,1,47.7,68.35c2.31,5.05,4.53,10.14,6.45,15.35,3.29,9-1.47,15.93-11,16.11-1,0-2,0-3.05,0H22.77c-1.11,0-2.22,0-3.33,0-8.57-.41-13.27-7.51-10.3-15.59a220.67,220.67,0,0,1,12.27-27.33A231.57,231.57,0,0,1,57.55,85.55C90,51.12,129.82,29,174.89,15.77a345.3,345.3,0,0,1,65.37-12.1c5-.47,10.14-.41,15.17-1.17Z"/><path class="cls-2" d="M51.49,225.83c-14.59,0-26.48,6.06-35.32,17.82-4.09,5.44-6.26,11.69-7.87,18.2V283c.2.71.43,1.41.59,2.13A43.2,43.2,0,0,0,25,310.59c8.84,6.85,19,9,30,9H342.38s-51.06-53.8-71.91-71.26-57.59-20.49-57.59-20.49l-161.39-2"/><path class="cls-2" d="M340.58,319.54"/><path class="cls-3" d="M523.45,309.14"/><path class="cls-4" d="M523.45,309.14c41.37,24.58,4.77,45.16-.3,47.8l-25.66,9.63c-5.8,2.41-11,.81-16.12-2.15-5.36-3.11-10.23-7-15.67-10-11.94-6.63-24.32-1.48-30.56,8.57-2.92,4.71-5.4,9.7-8.18,14.5-4.19,7.21-10.21,11.79-18.67,12.94a21.72,21.72,0,0,1-14.58-3.23c-4.39-2.66-7.92-6.38-11.78-9.68-6.34-5.41-13.23-8.71-21.88-6.73-6.43,1.47-11.11,5.3-14.9,10.41-2.92,3.94-5.56,8.09-8.55,12-9.29,12.08-24.8,13.14-35.56,2.43-3.67-3.65-7-7.64-10.65-11.31-10.18-10.24-23.57-10.26-33.72,0-2.87,2.88-5.52,6-8.16,9.07-7.93,9.26-18.49,12.21-28.6,7.84-5.21-2.25-8.8-6.34-12-10.85-2.56-3.63-4.85-7.46-7.84-10.77-10.1-11.16-23.29-11.84-34.59-1.89-3.61,3.18-7,6.55-11,9.36a23.3,23.3,0,0,1-31.63-4.51c-4.18-5.27-6.7-11.5-10.16-17.18-5-8.15-11.8-13.22-21.75-12.85-5.17.19-9.6,2.58-13.82,5.34-3.41,2.23-6.73,4.59-10.1,6.88l-.06,0a20.66,20.66,0,0,1-11.59,3.41c-47.21,0-52.77-35.41-52.77-35.41a3,3,0,0,1-.13-.73c-.43-12.52,17.94-17,26.31-18.35,0,0,12.7,5,17.34,5.38s296.22.53,296.22.53l28.93,32.81s5.56,6.48,11.47.13"/><path class="cls-5" d="M19.44,179.14c-32.71,25.18-.17,45.28-.17,45.28,44.13,4.17,172.42-3.63,215.52,6.67C261,237.37,281.7,256.14,301,275q17.54,17.21,34,35.41c8.89,9.8,17.5,19.83,26,29.95,3.39,4,6.66,8.19,10.3,12,4.41,4.58,9.79,3.69,12.79-1.83a24.94,24.94,0,0,0,1.61-3.83q11.26-33,24.56-65.18A149.39,149.39,0,0,1,447,229c13.94-13,61.33,1.19,76.79-10,0,0,28.15-17.12-.74-39.8"/><path class="cls-3" d="M492,179.07"/><path class="cls-3" d="M462.17,241.23"/><path class="cls-3" d="M417.88,267.07"/><path class="cls-2" d="M498.53,223.64c23.06,1,41.33,20.77,41.39,43.9,0,7.49.26,14.94-2.35,22.21a43.08,43.08,0,0,1-38,28.36c-17.57.82-35.16,0-49.32.34-19.52,0-37.09.06-53.19,0,0,0,18.89-69,49.93-89.53C447,229,450.41,221.56,498.53,223.64Z"/><polyline class="cls-4" points="382.77 352.51 395.93 318.07 494.32 318.5"/><path class="cls-1" d="M471.41,358.22c3.29,2.73,7.3,6.3,10.2,8,5.08,3,10.32,4.55,16.12,2.15L518,360.76,490,440.53a39.93,39.93,0,0,1-26.52,25.18C297.22,514,130.06,477.58,73,462.15a40,40,0,0,1-27.33-25.4L18.41,358.87c8,6.23,20,11.18,38,11.06a19.6,19.6,0,0,0,10.84-3.41l.06,0c3.37-2.29,6.69-4.65,10.1-6.88a45.76,45.76,0,0,1,5.54-3.17l19.38.13c4.32,2.2,7.79,5.86,10.65,10.54,3.46,5.68,6,11.91,10.16,17.18a23.3,23.3,0,0,0,31.63,4.51c3.92-2.81,7.36-6.19,11-9.36,11.3-10,24.49-9.27,34.59,1.89,3,3.3,5.28,7.14,7.84,10.77,3.18,4.51,6.77,8.6,12,10.85,10.11,4.36,20.67,1.41,28.6-7.84,2.65-3.09,5.3-6.19,8.16-9.07,10.15-10.21,23.54-10.19,33.72,0,3.65,3.67,7,7.66,10.65,11.31C312,408.09,327.54,407,336.83,395c3-3.88,5.63-8,8.55-12,3.79-5.11,8.47-8.94,14.9-10.41,8.65-2,15.55,1.32,21.88,6.73,3.86,3.3,7.39,7,11.78,9.68a21.72,21.72,0,0,0,14.58,3.23c8.46-1.15,14.48-5.73,18.67-12.94,2.79-4.8,5.26-9.79,8.18-14.5,1.39-2.24,3.68-7.43,5.92-8.64a35.63,35.63,0,0,1,8.24-3.31c1.28-.31,6.51-1.51,7.8-1.21C457.34,351.62,467.82,355.24,471.41,358.22Z"/></g></g></svg>
