<svg xmlns="http://www.w3.org/2000/svg" viewBox="0 0 316.45 583.28"><defs><style>.cls-1,.cls-4,.cls-6{fill:none;}.cls-2{fill:#ed1c24;}.cls-2,.cls-4,.cls-5,.cls-6,.cls-7{stroke:#fff;stroke-miterlimit:10;stroke-width:5px;}.cls-3,.cls-7{fill:#fff;}.cls-4,.cls-7{stroke-linecap:round;}.cls-5{fill:#ffc5f4;}</style></defs><title>Asset 7</title><g id="Layer_2" data-name="Layer 2"><g id="Layer_1-2" data-name="Layer 1"><path class="cls-1" d="M176,83.6l-5.33,15.6s8.14,20.91,24.76,8.41l4.18-12.55a46.57,46.57,0,0,0-13.93,3.84A44.89,44.89,0,0,0,176,83.6Z"/><path class="cls-2" d="M309.56,2.5l-105.85,0L176,83.6a44.89,44.89,0,0,1,9.68,15.31,46.57,46.57,0,0,1,13.93-3.84l22.15-66.46,75.13-1.82C325.37,27.21,309.56,2.5,309.56,2.5Z"/><polygon class="cls-3" points="184.31 99.36 184.99 100.84 186.42 100.23 185.78 98.77 184.31 99.36"/><polyline class="cls-4" points="70.01 51.49 59.99 16.05 29.93 16.05"/><path class="cls-5" d="M242.66,203C137,229.45,35.38,205.28,35.38,205.28s-26.91-5.51-32-23L44.1,541.17s82.29,89.11,187.32,0l43.14-360.75C269.11,197.59,242.66,203,242.66,203Z"/><path class="cls-6" d="M50.84,104.21s13.71,28.17,44.21,17.36S113.94,78.9,113.94,78.9l2.17-1.39"/><path class="cls-7" d="M275.11,168.64c-4.79-25.85-32.59-29.18-32.59-29.18s3.83-23.34-15.33-37.52c-9.43-7-19.61-7.82-27.52-6.88l-13.89,3.7L176,83.6C169.46,76.68,158.95,70,142.85,70a51.06,51.06,0,0,0-28.91,8.87s13.39,35-26.94,44.73c0,0-16.63,5-35.55-18.31-19.17,14.17-15.94,36.41-15.94,36.41S7.72,145.07,2.93,170.91s32.45,33.47,32.45,33.47S137,228.56,242.66,202.11C242.66,202.11,279.9,194.49,275.11,168.64Z"/><circle class="cls-2" cx="82.54" cy="90.53" r="33.48"/></g></g></svg>