<svg xmlns="http://www.w3.org/2000/svg" width="525.957" height="56.093" viewBox="0 0 525.957 56.093">
  <title>Asset 1</title>
  <g>
    <path d="M21.458,3.528l-7.273,42.34,12.6.288L25.274,54.8H0L6.192,3.528Z"/>
    <path d="M62.354.936C68.618,6.7,72.506,13.321,72.506,20.882c0,10.585-5.9,23.258-14.041,33.915H38.087c-2.88-5.041-6.48-11.665-6.48-18.578,0-8.928,3.888-17.785,8.281-25.058H52.561a80.742,80.742,0,0,0-8.713-7.633ZM53.137,11.521c-.72,1.872-6.265,13.9-6.265,26.066a52.8,52.8,0,0,0,1.944,13.754c5.113-10.009,7.993-19.3,7.993-28.587A17.858,17.858,0,0,0,53.137,11.521Z"/>
    <path d="M100.224,6.553c-1.584,2.52-5.112,8.425-5.112,12.6,0,7.848,11.017,10.368,11.017,18.721,0,6.985-9.433,16.346-10.081,16.922H75.958l4.608-4.176c5.4-4.9,8.569-8.353,8.569-11.809,0-5.329-10.153-8.569-10.153-17.21,0-4.752,2.52-9.145,5.905-15.049ZM114.481,1.8l-3.744,18.866H98.568L101.521,1.8Z"/>
    <path d="M124.631,17.786l11.449-2.664v-.144l-20.018.719,1.584-12.169h31.467l-1.945,11.233-7.272.288L133.056,54.8H120.167Z"/>
    <path d="M196.054,7.849h-.143c-5.329,10.441-9.145,18.721-9.145,26.5,0,7.345,7.921,15.409,15.481,20.45H183.381c-9.432-8.641-12.313-13.321-12.313-20.45,0-7.921,3.744-16.561,10.369-27.794h14.834l.864-4.753h13.321l-4.681,26.427H192.238Z"/>
    <path d="M233.061,4.464,224.42,54.8H211.6l5.832-50.333Z"/>
    <path d="M245.876,17.786l11.449-2.664v-.144l-20.018.719,1.584-12.169h31.467l-1.944,11.233-7.273.288L254.3,54.8H241.412Z"/>
    <path d="M284.972,42.124H273.523c-1.729-4.033-2.3-7.921-2.3-17.714a145.215,145.215,0,0,1,1.008-17.857h14.689c-1.584,11.233-2.448,18.577-2.448,26.138a34.59,34.59,0,0,0,.792,8.569h.144L293.685,1.8h15.7l-14.4,53H282.164Z"/>
    <path d="M335.155,11.161h14.977L342.643,54.8H329.826ZM343.147,54.8c4.753-6.985,13.609-20.09,13.609-32.763,0-8.569-6.912-13.033-15.913-17.57l15.7-3.528c5.832,3.1,15.913,9.145,15.913,19.586,0,12.385-9,25.418-15.121,34.275Z"/>
    <path d="M398.372,4.464,389.731,54.8H376.914l5.833-50.333Z"/>
    <path d="M405.714,6.553H425.3l2.88,37.3h.144l4.1-42.052,12.889,1.728-8.64,51.2-15.554,1.368-3.168-35.859h-.144L412.7,54.8H401.682Z"/>
    <path d="M473.107,54.8H448.481a8.439,8.439,0,0,1-.144-1.728c0-8.209,1.369-24.339,4.753-35.355l11.233-2.881v-.144l-13.393.433,2.88-11.594h27.938L480.02,14.113l-11.953.432-2.088,11.377H478l-1.44,8.353-12.314.576-1.872,10.873,12.169.576Z"/>
    <path d="M489.018,9.145h14.905L496,54.8H483.545ZM513.14,0c8.28,4.393,12.817,9.433,12.817,15.481,0,5.329-3.1,10.8-8.281,16.346l-5.4,5.832L521.564,54.8H505.939l-6.552-15.77,7.344-12.817c1.728-2.952,3.529-7.7,3.529-9.5,0-3.1-2.3-6.193-6.841-9l-8.065-4.177Z"/>
  </g>
</svg>
